<svg height="512pt" viewBox="0 0 512 512" width="512pt" xmlns="http://www.w3.org/2000/svg"><path d="m512 317.378906v-122.757812l-47.230469-7.230469c-3.4375-10.449219-7.667969-20.648437-12.644531-30.484375l28.296875-38.523438-86.804687-86.804687-38.523438 28.296875c-9.835938-4.980469-20.035156-9.210938-30.484375-12.644531l-7.230469-47.230469h-122.757812l-7.230469 47.230469c-10.449219 3.433593-20.648437 7.664062-30.484375 12.644531l-38.523438-28.296875-86.804687 86.804687 28.296875 38.523438c-4.980469 9.835938-9.210938 20.035156-12.644531 30.484375l-47.230469 7.230469v122.757812l47.230469 7.230469c3.4375 10.449219 7.667969 20.648437 12.644531 30.484375l-28.296875 38.523438 86.804687 86.800781 38.523438-28.292969c9.835938 4.976562 20.035156 9.207031 30.484375 12.644531l7.230469 47.230469h122.757812l7.230469-47.230469c10.449219-3.433593 20.648437-7.664062 30.484375-12.644531l38.523438 28.296875 86.804687-86.804687-28.296875-38.523438c4.976562-9.835938 9.207031-20.035156 12.644531-30.484375zm-70.675781-19.53125-2.605469 9.324219c-4.0625 14.542969-9.898438 28.613281-17.34375 41.824219l-4.753906 8.4375 24.371094 33.183594-50.375 50.375-33.183594-24.371094-8.4375 4.753906c-13.210938 7.445312-27.28125 13.28125-41.824219 17.347656l-9.324219 2.601563-6.226562 40.675781h-71.242188l-6.226562-40.675781-9.324219-2.601563c-14.542969-4.066406-28.613281-9.902344-41.824219-17.347656l-8.4375-4.753906-33.183594 24.371094-50.378906-50.375 24.375-33.183594-4.757812-8.4375c-7.441406-13.210938-13.277344-27.28125-17.34375-41.824219l-2.605469-9.324219-40.671875-6.226562v-71.242188l40.675781-6.226562 2.605469-9.324219c4.0625-14.542969 9.898438-28.613281 17.34375-41.824219l4.753906-8.4375-24.371094-33.183594 50.375-50.375 33.183594 24.371094 8.4375-4.753906c13.210938-7.445312 27.28125-13.28125 41.824219-17.347656l9.324219-2.601563 6.226562-40.675781h71.242188l6.226562 40.675781 9.324219 2.601563c14.542969 4.066406 28.613281 9.902344 41.824219 17.347656l8.4375 4.753906 33.183594-24.371094 50.378906 50.375-24.375 33.183594 4.757812 8.4375c7.441406 13.210938 13.277344 27.28125 17.34375 41.824219l2.605469 9.324219 40.671875 6.226562v71.242188zm0 0"/><path d="m256 109.5c-80.78125 0-146.5 65.71875-146.5 146.5s65.71875 146.5 146.5 146.5 146.5-65.71875 146.5-146.5-65.71875-146.5-146.5-146.5zm0 263c-64.238281 0-116.5-52.261719-116.5-116.5s52.261719-116.5 116.5-116.5 116.5 52.261719 116.5 116.5-52.261719 116.5-116.5 116.5zm0 0"/><path d="m256 167.476562c-48.8125 0-88.523438 39.710938-88.523438 88.523438s39.710938 88.523438 88.523438 88.523438 88.523438-39.710938 88.523438-88.523438-39.710938-88.523438-88.523438-88.523438zm0 147.046876c-32.269531 0-58.523438-26.253907-58.523438-58.523438s26.253907-58.523438 58.523438-58.523438 58.523438 26.253907 58.523438 58.523438-26.253907 58.523438-58.523438 58.523438zm0 0"/></svg>